<?xml version="1.0" encoding="iso-8859-1"?>
<!-- Generator: Adobe Illustrator 19.0.0, SVG Export Plug-In . SVG Version: 6.00 Build 0)  -->
<svg version="1.1" id="Layer_1" xmlns="http://www.w3.org/2000/svg" xmlns:xlink="http://www.w3.org/1999/xlink" x="0px" y="0px"
	 viewBox="0 0 512.001 512.001" style="enable-background:new 0 0 512.001 512.001;" xml:space="preserve">
<path style="fill:#FFC733;" d="M471.688,448.561H40.311c-8.836,0-16-7.164-16-15.999v-81.681c0-8.836,7.164-15.999,16-15.999
	h431.376c8.836,0,16,7.164,16,15.999v81.681C487.687,441.398,480.525,448.561,471.688,448.561z"/>
<path style="fill:#FFAF00;" d="M471.689,334.882H256v113.68h215.688c8.836,0,16-7.164,16-15.999v-81.681
	C487.688,342.045,480.525,334.882,471.689,334.882z"/>
<path style="fill:#FFE365;" d="M483.949,100.035L373.852,225.934L269.275,70.501c-6.334-9.413-20.213-9.416-26.55,0L138.148,225.934
	L28.051,100.035c-10.24-11.708-29.524-3.302-27.962,12.143l24.222,239.511v15.193c20.998,0,446.531,0,463.375,0v-15.193
	l24.223-239.511C513.474,96.729,494.186,88.329,483.949,100.035z"/>
<path style="fill:#FFC733;" d="M483.949,100.035L373.852,225.934L269.275,70.501c-3.167-4.707-8.221-7.061-13.274-7.061v303.44
	c111.635,0,223.226,0,231.688,0v-15.193l24.223-239.511C513.474,96.729,494.186,88.329,483.949,100.035z"/>
<path style="fill:#FF7976;" d="M256,308.407c-28.634,0-51.929-23.295-51.929-51.929c0-28.634,23.295-51.929,51.929-51.929
	c28.635,0,51.93,23.295,51.93,51.929C307.931,285.112,284.634,308.407,256,308.407z"/>
<path style="fill:#FF5752;" d="M307.929,256.478c0-28.634-23.295-51.929-51.929-51.929v103.858
	C284.634,308.407,307.929,285.111,307.929,256.478z"/>
<g>
</g>
<g>
</g>
<g>
</g>
<g>
</g>
<g>
</g>
<g>
</g>
<g>
</g>
<g>
</g>
<g>
</g>
<g>
</g>
<g>
</g>
<g>
</g>
<g>
</g>
<g>
</g>
<g>
</g>
</svg>
